<svg width="16" height="30" viewBox="0 0 16 30" fill="none" xmlns="http://www.w3.org/2000/svg">
<path d="M2.68706 13.1818C0.955288 11.9397 -0.00662281 9.86206 3.43248e-05 7.38849C0.00659652 4.95019 0.947236 2.8927 2.63278 1.60937C3.97351 0.588571 5.70516 0.0974656 7.85637 0.00225199L7.90725 0H13.1608V7.00532H8.01133C7.13571 7.04767 6.47358 7.17754 6.03493 7.34824C6.4728 7.48091 7.11766 7.56878 7.95817 7.56878C10.2002 7.61387 11.9688 8.08193 13.3397 9.11464C15.055 10.4067 16 12.5039 16 14.9905C16 17.4894 15.0443 19.5909 13.3103 20.8619C11.9304 21.8733 10.1571 22.3066 7.96063 22.3066C6.91671 22.3077 6.18517 22.4516 5.78249 22.6486C6.19279 22.8492 6.93792 22.9947 8 22.9947H13.1608V30H8C5.80874 30 4.03909 29.5606 2.66195 28.5349C0.941665 27.2535 6.33922e-06 25.1494 1.86754e-05 22.6534C1.86754e-05 20.1646 0.932339 18.0632 2.64121 16.7782C4.01296 15.7466 5.77542 15.3036 7.95817 15.3013C9.0034 15.3013 9.74942 15.1641 10.1781 14.9707C9.75163 14.7577 8.99753 14.5976 7.9329 14.5741C5.77861 14.5709 4.04238 14.1538 2.68706 13.1818ZM5.56892 22.5152C5.56847 22.5147 5.56814 22.5144 5.56794 22.5142C5.56803 22.5143 5.56813 22.5144 5.56823 22.5145L5.56892 22.5152ZM5.51645 7.10667C5.51569 7.10592 5.51504 7.10529 5.51451 7.1048C5.51472 7.10499 5.51494 7.10519 5.51517 7.1054L5.51645 7.10667Z" fill="white"/>
</svg>
