<svg width="29" height="33" viewBox="0 0 29 33" fill="none" xmlns="http://www.w3.org/2000/svg">
<g clip-path="url(#clip0)">
<path d="M18.8775 30.4847C18.7635 30.4844 18.6375 30.4591 18.5128 30.3979M18.8775 30.4847L18.5128 30.3979M18.8775 30.4847L18.8803 30.4847C18.8794 30.4847 18.8784 30.4847 18.8775 30.4847ZM18.5128 30.3979L18.5115 30.0855L18.8379 29.6897H18.8775H18.8794H19.0625V30.2105C19.0625 30.0292 19.0864 29.8547 19.1304 29.6897H20.4375V29.5275V29.5275V29.4114L21 29.4096L21.5625 29.4078H21L18.5128 30.3979ZM12.1147 13.3851L12.0988 13.4085L12.1147 13.3851ZM12.1147 13.3851L12.0019 13.4225L12.0009 13.4228L12.2831 13.4031L12.3767 13.2982M12.1147 13.3851L12.3767 13.2982M12.1147 13.3851L12.4836 12.8412M12.1147 13.3851L12.4836 12.8412M12.3767 13.2982L13.3781 12.9662L13.5942 11.9335L12.3767 13.2982ZM12.4836 12.8412C12.5764 12.8479 12.669 12.8565 12.7614 12.867L12.4836 12.8412ZM3.94381 28.5706L3.75395 28.3828L3.94381 28.5706ZM18.5025 30.3928C18.4487 30.3655 18.3951 30.3314 18.343 30.2898L18.5025 30.0964V30.3928Z" stroke="black" stroke-width="5"/>
</g>
<circle cx="20" cy="9" r="9" fill="#BE1785"/>
<path d="M23.3805 11.416V13H17.0325V11.74L20.2725 8.68C20.6165 8.352 20.8485 8.072 20.9685 7.84C21.0885 7.6 21.1485 7.364 21.1485 7.132C21.1485 6.796 21.0325 6.54 20.8005 6.364C20.5765 6.18 20.2445 6.088 19.8045 6.088C19.4365 6.088 19.1045 6.16 18.8085 6.304C18.5125 6.44 18.2645 6.648 18.0645 6.928L16.6485 6.016C16.9765 5.528 17.4285 5.148 18.0045 4.876C18.5805 4.596 19.2405 4.456 19.9845 4.456C20.6085 4.456 21.1525 4.56 21.6165 4.768C22.0885 4.968 22.4525 5.256 22.7085 5.632C22.9725 6 23.1045 6.436 23.1045 6.94C23.1045 7.396 23.0085 7.824 22.8165 8.224C22.6245 8.624 22.2525 9.08 21.7005 9.592L19.7685 11.416H23.3805Z" fill="white"/>
<defs>
<clipPath id="clip0">
<rect width="24" height="22" fill="white" transform="translate(0 11)"/>
</clipPath>
</defs>
</svg>
