<svg width="32" height="32" viewBox="0 0 32 32" fill="none" xmlns="http://www.w3.org/2000/svg">
<path d="M16 31.3438C24.4742 31.3438 31.3438 24.4742 31.3438 16C31.3438 7.52589 24.4742 0.65625 16 0.65625C7.52589 0.65625 0.65625 7.52589 0.65625 16C0.65625 24.4742 7.52589 31.3438 16 31.3438Z" stroke="black" stroke-miterlimit="10" stroke-linecap="round" stroke-linejoin="round"/>
<path d="M13.8492 3.49886C14.386 3.40336 14.9257 3.34126 15.4627 3.31458" stroke="black" stroke-miterlimit="10" stroke-linecap="round" stroke-linejoin="round"/>
<path d="M7.42432 6.68763C8.86557 5.44633 10.6507 4.3328 12.53 3.80212" stroke="black" stroke-miterlimit="10" stroke-linecap="round" stroke-linejoin="round"/>
<path d="M15.9986 15.471C17.9395 15.471 19.513 13.8976 19.513 11.9566C19.513 10.0156 17.9395 8.44214 15.9986 8.44214C14.0576 8.44214 12.4841 10.0156 12.4841 11.9566C12.4841 13.8976 14.0576 15.471 15.9986 15.471Z" stroke="black" stroke-miterlimit="10" stroke-linecap="round" stroke-linejoin="round"/>
<path d="M23.3473 23.5578H8.65271C8.65271 19.5027 11.9389 16.2106 16 16.2106C20.0551 16.2106 23.3473 19.5027 23.3473 23.5578Z" stroke="black" stroke-miterlimit="10" stroke-linecap="round" stroke-linejoin="round"/>
</svg>
