<?xml version="1.0" encoding="UTF-8" standalone="yes"?>
<svg xmlns="http://www.w3.org/2000/svg" viewBox="0 0 64 64" width="64" height="64" fill="#000000">
  <path d="M 32 3 C 16.01 3 3 16.009 3 32 C 3 47.991 16.01 61 32 61 C 47.99 61 61 47.991 61 32 C 61 16.009 47.99 3 32 3 z M 32 5 C 46.888 5 59 17.112 59 32 C 59 46.888 46.888 59 32 59 C 17.112 59 5 46.888 5 32 C 5 17.112 17.112 5 32 5 z M 43.931641 14.865234 C 43.83408 14.860242 43.735766 14.865063 43.634766 14.882812 L 25.580078 18.302734 C 24.718078 18.454734 24.089844 19.202125 24.089844 20.078125 L 24.089844 37.566406 C 24.089844 38.168406 23.681656 38.69475 23.097656 38.84375 L 18.552734 40.001953 L 18.171875 40.09375 C 16.444875 40.60775 15.139344 42.097687 14.902344 43.929688 C 14.845344 44.356687 14.848063 44.783891 14.914062 45.212891 C 15.274062 47.536891 17.471219 49.136719 19.824219 49.136719 L 19.957031 49.136719 C 23.694031 49.136719 26.726562 46.105187 26.726562 42.367188 L 26.726562 28.478516 C 26.726562 27.587516 27.365187 26.825875 28.242188 26.671875 L 40.996094 24.1875 C 41.804094 24.0455 42.544922 24.667328 42.544922 25.486328 L 42.544922 33.611328 C 42.544922 34.213328 42.136734 34.739672 41.552734 34.888672 L 37.007812 36.044922 L 36.626953 36.136719 C 34.899953 36.650719 33.594422 38.140656 33.357422 39.972656 C 33.300422 40.399656 33.303141 40.826859 33.369141 41.255859 C 33.729141 43.579859 35.926297 45.179688 38.279297 45.179688 L 38.412109 45.179688 C 42.149109 45.179688 45.181641 42.149109 45.181641 38.412109 L 45.181641 16.181641 C 45.182516 15.464141 44.614564 14.90018 43.931641 14.865234 z M 53.839844 34.632812 C 53.292844 34.540813 52.779453 34.911078 52.689453 35.455078 C 52.598453 36.000078 52.968672 36.515469 53.513672 36.605469 L 55.486328 36.931641 C 55.541328 36.941641 55.596391 36.945312 55.650391 36.945312 C 56.131391 36.945312 56.554766 36.599375 56.634766 36.109375 C 56.725766 35.564375 56.3575 35.048984 55.8125 34.958984 L 53.839844 34.632812 z M 52.455078 38.990234 C 52.066344 39.001391 51.700328 39.241453 51.548828 39.626953 C 51.346828 40.140953 51.602187 40.720875 52.117188 40.921875 L 53.980469 41.650391 C 54.099469 41.697391 54.22275 41.71875 54.34375 41.71875 C 54.74275 41.71875 55.120391 41.478031 55.275391 41.082031 C 55.477391 40.568031 55.222031 39.988109 54.707031 39.787109 L 52.84375 39.058594 C 52.716 39.008594 52.584656 38.986516 52.455078 38.990234 z M 50.587891 43.041016 C 50.204641 42.971781 49.800266 43.132766 49.572266 43.478516 C 49.270266 43.940516 49.399328 44.558328 49.861328 44.861328 L 51.533203 45.957031 C 51.702203 46.068031 51.892078 46.121094 52.080078 46.121094 C 52.406078 46.121094 52.727922 45.962922 52.919922 45.669922 C 53.221922 45.207922 53.092859 44.588156 52.630859 44.285156 L 50.957031 43.189453 C 50.841531 43.113953 50.715641 43.064094 50.587891 43.041016 z M 47.556641 46.556641 C 47.300891 46.556641 47.045109 46.654109 46.849609 46.849609 C 46.458609 47.239609 46.458609 47.872672 46.849609 48.263672 L 48.263672 49.677734 C 48.458672 49.872734 48.714703 49.970703 48.970703 49.970703 C 49.226703 49.970703 49.481734 49.872734 49.677734 49.677734 C 50.068734 49.287734 50.068734 48.654672 49.677734 48.263672 L 48.263672 46.849609 C 48.068172 46.654109 47.812391 46.556641 47.556641 46.556641 z M 43.847656 49.423828 C 43.719859 49.446969 43.594266 49.496766 43.478516 49.572266 C 43.016516 49.874266 42.886453 50.493078 43.189453 50.955078 L 44.283203 52.628906 C 44.475203 52.922906 44.795094 53.082031 45.121094 53.082031 C 45.309094 53.082031 45.500922 53.029922 45.669922 52.919922 C 46.131922 52.617922 46.260031 51.997156 45.957031 51.535156 L 44.863281 49.861328 C 44.635281 49.514078 44.231047 49.354406 43.847656 49.423828 z M 40.017578 51.480469 C 39.887547 51.476781 39.756203 51.499078 39.626953 51.548828 C 39.113953 51.749828 38.857594 52.32875 39.058594 52.84375 L 39.787109 54.705078 C 39.942109 55.100078 40.31975 55.34375 40.71875 55.34375 C 40.83975 55.34375 40.962031 55.320437 41.082031 55.273438 C 41.595031 55.072438 41.851391 54.493516 41.650391 53.978516 L 40.921875 52.115234 C 40.771125 51.728984 40.407672 51.491531 40.017578 51.480469 z M 35.455078 52.689453 C 34.910078 52.779453 34.541812 53.294844 34.632812 53.839844 L 34.960938 55.8125 C 35.041937 56.3015 35.465313 56.648438 35.945312 56.648438 C 35.999312 56.648438 36.055375 56.645719 36.109375 56.636719 C 36.654375 56.546719 37.022641 56.031328 36.931641 55.486328 L 36.605469 53.513672 C 36.516469 52.969672 36.000078 52.596453 35.455078 52.689453 z"/>
</svg>
