<svg width="15" height="15" viewBox="0 0 15 15" fill="none" xmlns="http://www.w3.org/2000/svg">
<path d="M9.4955 10.0384L9.19634 9.73924L8.8518 9.98475C8.06504 10.5454 7.10301 10.875 6.0625 10.875C3.40463 10.875 1.25 8.72037 1.25 6.0625C1.25 3.40463 3.40463 1.25 6.0625 1.25C8.72037 1.25 10.875 3.40463 10.875 6.0625C10.875 7.10301 10.5454 8.06504 9.98475 8.8518L9.73924 9.19635L10.0384 9.4955L13.5289 12.986C13.6764 13.1335 13.6758 13.3671 13.5288 13.5141L13.5141 13.5288C13.3687 13.6742 13.1314 13.6743 12.986 13.5289L9.4955 10.0384ZM6.0625 10.625C8.5823 10.625 10.625 8.5823 10.625 6.0625C10.625 3.5427 8.5823 1.5 6.0625 1.5C3.5427 1.5 1.5 3.5427 1.5 6.0625C1.5 8.5823 3.5427 10.625 6.0625 10.625Z" stroke="#979797"/>
</svg>
